<svg style="width:100%;height:100%;" xmlns="http://www.w3.org/2000/svg" id="mindmap" class="markmap mindmap"><style>.markmap {
  --markmap-max-width: 9999px;
  --markmap-a-color: #0097e6;
  --markmap-a-hover-color: #00a8ff;
  --markmap-code-bg: #f0f0f0;
  --markmap-code-color: #555;
  --markmap-highlight-bg: #ffeaa7;
  --markmap-table-border: 1px solid currentColor;
  --markmap-font: 300 16px/20px sans-serif;
  --markmap-circle-open-bg: #fff;
  --markmap-text-color: #333;
  --markmap-highlight-node-bg: #ff02;

  font: var(--markmap-font);
  color: var(--markmap-text-color);
}

  .markmap-link {
    fill: none;
  }

  .markmap-node &gt; circle {
      cursor: pointer;
    }

  .markmap-foreign {
    display: inline-block;
  }

  .markmap-foreign p {
      margin: 0;
    }

  .markmap-foreign a {
      color: var(--markmap-a-color);
    }

  .markmap-foreign a:hover {
        color: var(--markmap-a-hover-color);
      }

  .markmap-foreign code {
      padding: 0.25em;
      font-size: calc(1em - 2px);
      color: var(--markmap-code-color);
      background-color: var(--markmap-code-bg);
      border-radius: 2px;
    }

  .markmap-foreign pre {
      margin: 0;
    }

  .markmap-foreign pre &gt; code {
        display: block;
      }

  .markmap-foreign del {
      text-decoration: line-through;
    }

  .markmap-foreign em {
      font-style: italic;
    }

  .markmap-foreign strong {
      font-weight: bold;
    }

  .markmap-foreign mark {
      background: var(--markmap-highlight-bg);
    }

  .markmap-foreign table,
    .markmap-foreign th,
    .markmap-foreign td {
      border-collapse: collapse;
      border: var(--markmap-table-border);
    }

  .markmap-foreign img {
      display: inline-block;
    }

  .markmap-foreign svg {
      fill: currentColor;
    }

  .markmap-foreign &gt; div {
      width: var(--markmap-max-width);
      text-align: left;
    }

  .markmap-foreign &gt; div &gt; div {
        display: inline-block;
      }

  .markmap-highlight rect {
    fill: var(--markmap-highlight-node-bg);
  }

.markmap-dark .markmap {
  --markmap-code-bg: #1a1b26;
  --markmap-code-color: #ddd;
  --markmap-circle-open-bg: #444;
  --markmap-text-color: #eee;
}
</style><g transform="translate(160.75365579302593,616.9108548931383) scale(1.282339707536558)"><path class="markmap-link" data-depth="3" data-path="1.2.3" d="M386,-370.875C426,-370.875,426,-437,466,-437" stroke-width="1.375" stroke="rgb(44, 160, 44)"></path><path class="markmap-link" data-depth="3" data-path="1.2.4" d="M386,-370.875C426,-370.875,426,-410.625,466,-410.625" stroke-width="1.375" stroke="rgb(214, 39, 40)"></path><path class="markmap-link" data-depth="3" data-path="1.2.5" d="M386,-370.875C426,-370.875,426,-384.25,466,-384.25" stroke-width="1.375" stroke="rgb(148, 103, 189)"></path><path class="markmap-link" data-depth="3" data-path="1.2.6" d="M386,-370.875C426,-370.875,426,-357.875,466,-357.875" stroke-width="1.375" stroke="rgb(140, 86, 75)"></path><path class="markmap-link" data-depth="3" data-path="1.2.7" d="M386,-370.875C426,-370.875,426,-331.5,466,-331.5" stroke-width="1.375" stroke="rgb(227, 119, 194)"></path><path class="markmap-link" data-depth="3" data-path="1.2.8" d="M386,-370.875C426,-370.875,426,-305.125,466,-305.125" stroke-width="1.375" stroke="rgb(127, 127, 127)"></path><path class="markmap-link" data-depth="3" data-path="1.9.10" d="M480,-194.437C520,-194.437,520,-273.75,560,-273.75" stroke-width="1.375" stroke="rgb(23, 190, 207)"></path><path class="markmap-link" data-depth="3" data-path="1.9.11" d="M480,-194.437C520,-194.437,520,-247.375,560,-247.375" stroke-width="1.375" stroke="rgb(31, 119, 180)"></path><path class="markmap-link" data-depth="3" data-path="1.9.12" d="M480,-194.437C520,-194.437,520,-221,560,-221" stroke-width="1.375" stroke="rgb(255, 127, 14)"></path><path class="markmap-link" data-depth="3" data-path="1.9.13" d="M480,-194.437C520,-194.437,520,-194.625,560,-194.625" stroke-width="1.375" stroke="rgb(44, 160, 44)"></path><path class="markmap-link" data-depth="3" data-path="1.9.14" d="M480,-194.437C520,-194.437,520,-168.25,560,-168.25" stroke-width="1.375" stroke="rgb(214, 39, 40)"></path><path class="markmap-link" data-depth="3" data-path="1.9.15" d="M480,-194.437C520,-194.437,520,-141.875,560,-141.875" stroke-width="1.375" stroke="rgb(148, 103, 189)"></path><path class="markmap-link" data-depth="3" data-path="1.9.16" d="M480,-194.437C520,-194.437,520,-115.5,560,-115.5" stroke-width="1.375" stroke="rgb(140, 86, 75)"></path><path class="markmap-link" data-depth="3" data-path="1.17.18" d="M501,-44.375C541,-44.375,541,-84.125,581,-84.125" stroke-width="1.375" stroke="rgb(127, 127, 127)"></path><path class="markmap-link" data-depth="3" data-path="1.17.19" d="M501,-44.375C541,-44.375,541,-57.75,581,-57.75" stroke-width="1.375" stroke="rgb(188, 189, 34)"></path><path class="markmap-link" data-depth="3" data-path="1.17.20" d="M501,-44.375C541,-44.375,541,-31.375,581,-31.375" stroke-width="1.375" stroke="rgb(23, 190, 207)"></path><path class="markmap-link" data-depth="3" data-path="1.17.21" d="M501,-44.375C541,-44.375,541,-5,581,-5" stroke-width="1.375" stroke="rgb(31, 119, 180)"></path><path class="markmap-link" data-depth="3" data-path="1.22.23" d="M386,105.688C426,105.688,426,26.375,466,26.375" stroke-width="1.375" stroke="rgb(44, 160, 44)"></path><path class="markmap-link" data-depth="3" data-path="1.22.24" d="M386,105.688C426,105.688,426,52.75,466,52.75" stroke-width="1.375" stroke="rgb(214, 39, 40)"></path><path class="markmap-link" data-depth="3" data-path="1.22.25" d="M386,105.688C426,105.688,426,79.125,466,79.125" stroke-width="1.375" stroke="rgb(148, 103, 189)"></path><path class="markmap-link" data-depth="3" data-path="1.22.26" d="M386,105.688C426,105.688,426,105.5,466,105.5" stroke-width="1.375" stroke="rgb(140, 86, 75)"></path><path class="markmap-link" data-depth="3" data-path="1.22.27" d="M386,105.688C426,105.688,426,131.875,466,131.875" stroke-width="1.375" stroke="rgb(227, 119, 194)"></path><path class="markmap-link" data-depth="3" data-path="1.22.28" d="M386,105.688C426,105.688,426,158.25,466,158.25" stroke-width="1.375" stroke="rgb(127, 127, 127)"></path><path class="markmap-link" data-depth="3" data-path="1.22.29" d="M386,105.688C426,105.688,426,184.625,466,184.625" stroke-width="1.375" stroke="rgb(188, 189, 34)"></path><path class="markmap-link" data-depth="3" data-path="1.30.31" d="M418,268.938C458,268.938,458,216,498,216" stroke-width="1.375" stroke="rgb(31, 119, 180)"></path><path class="markmap-link" data-depth="3" data-path="1.30.32" d="M418,268.938C458,268.938,458,242.375,498,242.375" stroke-width="1.375" stroke="rgb(255, 127, 14)"></path><path class="markmap-link" data-depth="3" data-path="1.30.33" d="M418,268.938C458,268.938,458,268.75,498,268.75" stroke-width="1.375" stroke="rgb(44, 160, 44)"></path><path class="markmap-link" data-depth="3" data-path="1.30.34" d="M418,268.938C458,268.938,458,295.125,498,295.125" stroke-width="1.375" stroke="rgb(214, 39, 40)"></path><path class="markmap-link" data-depth="3" data-path="1.30.35" d="M418,268.938C458,268.938,458,321.5,498,321.5" stroke-width="1.375" stroke="rgb(148, 103, 189)"></path><path class="markmap-link" data-depth="3" data-path="1.36.37" d="M402,392.625C442,392.625,442,352.875,482,352.875" stroke-width="1.375" stroke="rgb(227, 119, 194)"></path><path class="markmap-link" data-depth="3" data-path="1.36.38" d="M402,392.625C442,392.625,442,379.25,482,379.25" stroke-width="1.375" stroke="rgb(127, 127, 127)"></path><path class="markmap-link" data-depth="3" data-path="1.36.39" d="M402,392.625C442,392.625,442,405.625,482,405.625" stroke-width="1.375" stroke="rgb(188, 189, 34)"></path><path class="markmap-link" data-depth="3" data-path="1.36.40" d="M402,392.625C442,392.625,442,432,482,432" stroke-width="1.375" stroke="rgb(23, 190, 207)"></path><path class="markmap-link" data-depth="2" data-path="1.2" d="M202,11.25C242,11.25,242,-370.875,282,-370.875" stroke-width="1.75" stroke="rgb(255, 127, 14)"></path><path class="markmap-link" data-depth="2" data-path="1.9" d="M202,11.25C242,11.25,242,-194.437,282,-194.437" stroke-width="1.75" stroke="rgb(188, 189, 34)"></path><path class="markmap-link" data-depth="2" data-path="1.17" d="M202,11.25C242,11.25,242,-44.375,282,-44.375" stroke-width="1.75" stroke="rgb(227, 119, 194)"></path><path class="markmap-link" data-depth="2" data-path="1.22" d="M202,11.25C242,11.25,242,105.688,282,105.688" stroke-width="1.75" stroke="rgb(255, 127, 14)"></path><path class="markmap-link" data-depth="2" data-path="1.30" d="M202,11.25C242,11.25,242,268.938,282,268.938" stroke-width="1.75" stroke="rgb(23, 190, 207)"></path><path class="markmap-link" data-depth="2" data-path="1.36" d="M202,11.25C242,11.25,242,392.625,282,392.625" stroke-width="1.75" stroke="rgb(140, 86, 75)"></path><g class="markmap-highlight"></g><g data-depth="3" data-path="1.2.3" class="markmap-node" transform="translate(466, -457.6875)"><line stroke="#2ca02c" stroke-width="1.375" x1="-1" x2="256" y1="20.6875" y2="20.6875"></line><foreignObject class="markmap-foreign" x="8" y="0" style="opacity: 1;" width="238" height="20"><div><div xmlns="http://www.w3.org/1999/xhtml">当前版本：<strong>v2.0.1</strong>（2026-08-18）</div></div></foreignObject></g><g data-depth="3" data-path="1.2.4" class="markmap-node" transform="translate(466, -431.3125)"><line stroke="#d62728" stroke-width="1.375" x1="-1" x2="300" y1="20.6875" y2="20.6875"></line><foreignObject class="markmap-foreign" x="8" y="0" style="opacity: 1;" width="282" height="20"><div><div xmlns="http://www.w3.org/1999/xhtml">定位：零基础友好的韩语学习 Web 应用</div></div></foreignObject></g><g data-depth="3" data-path="1.2.5" class="markmap-node" transform="translate(466, -404.9375)"><line stroke="#9467bd" stroke-width="1.375" x1="-1" x2="315" y1="20.6875" y2="20.6875"></line><foreignObject class="markmap-foreign" x="8" y="0" style="opacity: 1;" width="297" height="20"><div><div xmlns="http://www.w3.org/1999/xhtml">前端：React + Vite + Tailwind + shadcn/ui</div></div></foreignObject></g><g data-depth="3" data-path="1.2.6" class="markmap-node" transform="translate(466, -378.5625)"><line stroke="#8c564b" stroke-width="1.375" x1="-1" x2="270" y1="20.6875" y2="20.6875"></line><foreignObject class="markmap-foreign" x="8" y="0" style="opacity: 1;" width="252" height="20"><div><div xmlns="http://www.w3.org/1999/xhtml">后端：Hono + tRPC + Drizzle ORM</div></div></foreignObject></g><g data-depth="3" data-path="1.2.7" class="markmap-node" transform="translate(466, -352.1875)"><line stroke="#e377c2" stroke-width="1.375" x1="-1" x2="325" y1="20.6875" y2="20.6875"></line><foreignObject class="markmap-foreign" x="8" y="0" style="opacity: 1;" width="307" height="20"><div><div xmlns="http://www.w3.org/1999/xhtml">数据库：MySQL（8 张表，启动自动建表）</div></div></foreignObject></g><g data-depth="3" data-path="1.2.8" class="markmap-node" transform="translate(466, -325.8125)"><line stroke="#7f7f7f" stroke-width="1.375" x1="-1" x2="383" y1="20.6875" y2="20.6875"></line><foreignObject class="markmap-foreign" x="8" y="0" style="opacity: 1;" width="365" height="20"><div><div xmlns="http://www.w3.org/1999/xhtml">仓库：github.com/MUNINUNI/KoreanFlow（私有）</div></div></foreignObject></g><g data-depth="2" data-path="1.2" class="markmap-node" transform="translate(282, -391.75)"><line stroke="#ff7f0e" stroke-width="1.75" x1="-1" x2="106" y1="20.875" y2="20.875"></line><circle stroke-width="1.5" r="6" stroke="#ff7f0e" fill="var(--markmap-circle-open-bg)" cx="104" cy="20.875"></circle><foreignObject class="markmap-foreign" x="8" y="0" style="opacity: 1;" width="88" height="20"><div><div xmlns="http://www.w3.org/1999/xhtml">📦 项目概览</div></div></foreignObject></g><g data-depth="3" data-path="1.9.10" class="markmap-node" transform="translate(560, -294.4375)"><line stroke="#17becf" stroke-width="1.375" x1="-1" x2="309" y1="20.6875" y2="20.6875"></line><foreignObject class="markmap-foreign" x="8" y="0" style="opacity: 1;" width="291" height="20"><div><div xmlns="http://www.w3.org/1999/xhtml">✅ 首页：学习总览 / 每日一句 / 开始学习</div></div></foreignObject></g><g data-depth="3" data-path="1.9.11" class="markmap-node" transform="translate(560, -268.0625)"><line stroke="#1f77b4" stroke-width="1.375" x1="-1" x2="254" y1="20.6875" y2="20.6875"></line><foreignObject class="markmap-foreign" x="8" y="0" style="opacity: 1;" width="236" height="20"><div><div xmlns="http://www.w3.org/1999/xhtml">✅ 40音入门：字母表 + 跟读发音</div></div></foreignObject></g><g data-depth="3" data-path="1.9.12" class="markmap-node" transform="translate(560, -241.6875)"><line stroke="#ff7f0e" stroke-width="1.375" x1="-1" x2="269" y1="20.6875" y2="20.6875"></line><foreignObject class="markmap-foreign" x="8" y="0" style="opacity: 1;" width="251" height="20"><div><div xmlns="http://www.w3.org/1999/xhtml">✅ 单词学习：内置词库 + 分组学习</div></div></foreignObject></g><g data-depth="3" data-path="1.9.13" class="markmap-node" transform="translate(560, -215.3125)"><line stroke="#2ca02c" stroke-width="1.375" x1="-1" x2="269" y1="20.6875" y2="20.6875"></line><foreignObject class="markmap-foreign" x="8" y="0" style="opacity: 1;" width="251" height="20"><div><div xmlns="http://www.w3.org/1999/xhtml">✅ 发音练习：录音波形 + 跟读对比</div></div></foreignObject></g><g data-depth="3" data-path="1.9.14" class="markmap-node" transform="translate(560, -188.9375)"><line stroke="#d62728" stroke-width="1.375" x1="-1" x2="439" y1="20.6875" y2="20.6875"></line><foreignObject class="markmap-foreign" x="8" y="0" style="opacity: 1;" width="421" height="20"><div><div xmlns="http://www.w3.org/1999/xhtml">✅ 语料中心：音视频/PDF/文本导入 + 划词翻译 + A-B 循环</div></div></foreignObject></g><g data-depth="3" data-path="1.9.15" class="markmap-node" transform="translate(560, -162.5625)"><line stroke="#9467bd" stroke-width="1.375" x1="-1" x2="355" y1="20.6875" y2="20.6875"></line><foreignObject class="markmap-foreign" x="8" y="0" style="opacity: 1;" width="337" height="20"><div><div xmlns="http://www.w3.org/1999/xhtml">✅ 复习系统（v2.0）：闪卡 / 拼写 / 发音三模式</div></div></foreignObject></g><g data-depth="3" data-path="1.9.16" class="markmap-node" transform="translate(560, -136.1875)"><line stroke="#8c564b" stroke-width="1.375" x1="-1" x2="331" y1="20.6875" y2="20.6875"></line><foreignObject class="markmap-foreign" x="8" y="0" style="opacity: 1;" width="313" height="20"><div><div xmlns="http://www.w3.org/1999/xhtml">✅ 用户中心（v2.0）：学习统计 + 偏好设置</div></div></foreignObject></g><g data-depth="2" data-path="1.9" class="markmap-node" transform="translate(282, -215.3125)"><line stroke="#bcbd22" stroke-width="1.75" x1="-1" x2="200" y1="20.875" y2="20.875"></line><circle stroke-width="1.5" r="6" stroke="#bcbd22" fill="var(--markmap-circle-open-bg)" cx="198" cy="20.875"></circle><foreignObject class="markmap-foreign" x="8" y="0" style="opacity: 1;" width="182" height="20"><div><div xmlns="http://www.w3.org/1999/xhtml">🧩 功能模块（7 大页面）</div></div></foreignObject></g><g data-depth="3" data-path="1.17.18" class="markmap-node" transform="translate(581, -104.8125)"><line stroke="#7f7f7f" stroke-width="1.375" x1="-1" x2="270" y1="20.6875" y2="20.6875"></line><foreignObject class="markmap-foreign" x="8" y="0" style="opacity: 1;" width="252" height="20"><div><div xmlns="http://www.w3.org/1999/xhtml">匿名设备用户自动建档（deviceId）</div></div></foreignObject></g><g data-depth="3" data-path="1.17.19" class="markmap-node" transform="translate(581, -78.4375)"><line stroke="#bcbd22" stroke-width="1.375" x1="-1" x2="260" y1="20.6875" y2="20.6875"></line><foreignObject class="markmap-foreign" x="8" y="0" style="opacity: 1;" width="242" height="20"><div><div xmlns="http://www.w3.org/1999/xhtml">学习行为本地优先 + 云端静默同步</div></div></foreignObject></g><g data-depth="3" data-path="1.17.20" class="markmap-node" transform="translate(581, -52.0625)"><line stroke="#17becf" stroke-width="1.375" x1="-1" x2="255" y1="20.6875" y2="20.6875"></line><foreignObject class="markmap-foreign" x="8" y="0" style="opacity: 1;" width="237" height="20"><div><div xmlns="http://www.w3.org/1999/xhtml">语料一键加入单词库 / 发音练习库</div></div></foreignObject></g><g data-depth="3" data-path="1.17.21" class="markmap-node" transform="translate(581, -25.6875)"><line stroke="#1f77b4" stroke-width="1.375" x1="-1" x2="263" y1="20.6875" y2="20.6875"></line><foreignObject class="markmap-foreign" x="8" y="0" style="opacity: 1;" width="245" height="20"><div><div xmlns="http://www.w3.org/1999/xhtml">预留：openid 登录、会员付费字段</div></div></foreignObject></g><g data-depth="2" data-path="1.17" class="markmap-node" transform="translate(282, -65.25)"><line stroke="#e377c2" stroke-width="1.75" x1="-1" x2="221" y1="20.875" y2="20.875"></line><circle stroke-width="1.5" r="6" stroke="#e377c2" fill="var(--markmap-circle-open-bg)" cx="219" cy="20.875"></circle><foreignObject class="markmap-foreign" x="8" y="0" style="opacity: 1;" width="203" height="20"><div><div xmlns="http://www.w3.org/1999/xhtml">🗄️ 后端与数据（v2.0 新增）</div></div></foreignObject></g><g data-depth="3" data-path="1.22.23" class="markmap-node" transform="translate(466, 5.6875)"><line stroke="#2ca02c" stroke-width="1.375" x1="-1" x2="300" y1="20.6875" y2="20.6875"></line><foreignObject class="markmap-foreign" x="8" y="0" style="opacity: 1;" width="282" height="20"><div><div xmlns="http://www.w3.org/1999/xhtml">v0.0.1｜07-22｜立项：PRD 与功能清单</div></div></foreignObject></g><g data-depth="3" data-path="1.22.24" class="markmap-node" transform="translate(466, 32.0625)"><line stroke="#d62728" stroke-width="1.375" x1="-1" x2="330" y1="20.6875" y2="20.6875"></line><foreignObject class="markmap-foreign" x="8" y="0" style="opacity: 1;" width="312" height="20"><div><div xmlns="http://www.w3.org/1999/xhtml">v0.1.0｜08-11｜React Web 脚手架 + 组件库</div></div></foreignObject></g><g data-depth="3" data-path="1.22.25" class="markmap-node" transform="translate(466, 58.4375)"><line stroke="#9467bd" stroke-width="1.375" x1="-1" x2="311" y1="20.6875" y2="20.6875"></line><foreignObject class="markmap-foreign" x="8" y="0" style="opacity: 1;" width="293" height="20"><div><div xmlns="http://www.w3.org/1999/xhtml">v0.2.0｜08-11｜单词学习模块 + 内置词库</div></div></foreignObject></g><g data-depth="3" data-path="1.22.26" class="markmap-node" transform="translate(466, 84.8125)"><line stroke="#8c564b" stroke-width="1.375" x1="-1" x2="298" y1="20.6875" y2="20.6875"></line><foreignObject class="markmap-foreign" x="8" y="0" style="opacity: 1;" width="280" height="20"><div><div xmlns="http://www.w3.org/1999/xhtml">v0.3.0｜08-13｜40音入门页 + 全局样式</div></div></foreignObject></g><g data-depth="3" data-path="1.22.27" class="markmap-node" transform="translate(466, 111.1875)"><line stroke="#e377c2" stroke-width="1.375" x1="-1" x2="355" y1="20.6875" y2="20.6875"></line><foreignObject class="markmap-foreign" x="8" y="0" style="opacity: 1;" width="337" height="20"><div><div xmlns="http://www.w3.org/1999/xhtml">v1.0.0｜08-16｜静态前端完整版（5 页面闭环）</div></div></foreignObject></g><g data-depth="3" data-path="1.22.28" class="markmap-node" transform="translate(466, 137.5625)"><line stroke="#7f7f7f" stroke-width="1.375" x1="-1" x2="409" y1="20.6875" y2="20.6875"></line><foreignObject class="markmap-foreign" x="8" y="0" style="opacity: 1;" width="391" height="20"><div><div xmlns="http://www.w3.org/1999/xhtml">v2.0.0｜08-17｜全栈升级：数据库+用户中心+复习系统</div></div></foreignObject></g><g data-depth="3" data-path="1.22.29" class="markmap-node" transform="translate(466, 163.9375)"><line stroke="#bcbd22" stroke-width="1.375" x1="-1" x2="481" y1="20.6875" y2="20.6875"></line><foreignObject class="markmap-foreign" x="8" y="0" style="opacity: 1;" width="463" height="20"><div><div xmlns="http://www.w3.org/1999/xhtml">v2.0.1｜08-18｜版本归档体系：GitHub+CHANGELOG+思维导图</div></div></foreignObject></g><g data-depth="2" data-path="1.22" class="markmap-node" transform="translate(282, 84.8125)"><line stroke="#ff7f0e" stroke-width="1.75" x1="-1" x2="106" y1="20.875" y2="20.875"></line><circle stroke-width="1.5" r="6" stroke="#ff7f0e" fill="var(--markmap-circle-open-bg)" cx="104" cy="20.875"></circle><foreignObject class="markmap-foreign" x="8" y="0" style="opacity: 1;" width="88" height="20"><div><div xmlns="http://www.w3.org/1999/xhtml">🕘 版本迭代</div></div></foreignObject></g><g data-depth="3" data-path="1.30.31" class="markmap-node" transform="translate(498, 195.3125)"><line stroke="#1f77b4" stroke-width="1.375" x1="-1" x2="272" y1="20.6875" y2="20.6875"></line><foreignObject class="markmap-foreign" x="8" y="0" style="opacity: 1;" width="254" height="20"><div><div xmlns="http://www.w3.org/1999/xhtml">迭代完成 → 更新 CHANGELOG.md</div></div></foreignObject></g><g data-depth="3" data-path="1.30.32" class="markmap-node" transform="translate(498, 221.6875)"><line stroke="#ff7f0e" stroke-width="1.375" x1="-1" x2="369" y1="20.6875" y2="20.6875"></line><foreignObject class="markmap-foreign" x="8" y="0" style="opacity: 1;" width="351" height="20"><div><div xmlns="http://www.w3.org/1999/xhtml">同步更新 markmap.md → 重新生成 markmap.svg</div></div></foreignObject></g><g data-depth="3" data-path="1.30.33" class="markmap-node" transform="translate(498, 248.0625)"><line stroke="#2ca02c" stroke-width="1.375" x1="-1" x2="381" y1="20.6875" y2="20.6875"></line><foreignObject class="markmap-foreign" x="8" y="0" style="opacity: 1;" width="363" height="20"><div><div xmlns="http://www.w3.org/1999/xhtml">Conventional Commits 规范提交（feat/fix/docs…）</div></div></foreignObject></g><g data-depth="3" data-path="1.30.34" class="markmap-node" transform="translate(498, 274.4375)"><line stroke="#d62728" stroke-width="1.375" x1="-1" x2="205" y1="20.6875" y2="20.6875"></line><foreignObject class="markmap-foreign" x="8" y="0" style="opacity: 1;" width="187" height="20"><div><div xmlns="http://www.w3.org/1999/xhtml">推送 GitHub 远程仓库归档</div></div></foreignObject></g><g data-depth="3" data-path="1.30.35" class="markmap-node" transform="translate(498, 300.8125)"><line stroke="#9467bd" stroke-width="1.375" x1="-1" x2="295" y1="20.6875" y2="20.6875"></line><foreignObject class="markmap-foreign" x="8" y="0" style="opacity: 1;" width="277" height="20"><div><div xmlns="http://www.w3.org/1999/xhtml">详细规范见 docs/版本迭代管理规范.md</div></div></foreignObject></g><g data-depth="2" data-path="1.30" class="markmap-node" transform="translate(282, 248.0625)"><line stroke="#17becf" stroke-width="1.75" x1="-1" x2="138" y1="20.875" y2="20.875"></line><circle stroke-width="1.5" r="6" stroke="#17becf" fill="var(--markmap-circle-open-bg)" cx="136" cy="20.875"></circle><foreignObject class="markmap-foreign" x="8" y="0" style="opacity: 1;" width="120" height="20"><div><div xmlns="http://www.w3.org/1999/xhtml">🔄 版本管理机制</div></div></foreignObject></g><g data-depth="3" data-path="1.36.37" class="markmap-node" transform="translate(482, 332.1875)"><line stroke="#e377c2" stroke-width="1.375" x1="-1" x2="234" y1="20.6875" y2="20.6875"></line><foreignObject class="markmap-foreign" x="8" y="0" style="opacity: 1;" width="216" height="20"><div><div xmlns="http://www.w3.org/1999/xhtml">Kimi 登录接入（绑定 openid）</div></div></foreignObject></g><g data-depth="3" data-path="1.36.38" class="markmap-node" transform="translate(482, 358.5625)"><line stroke="#7f7f7f" stroke-width="1.375" x1="-1" x2="127" y1="20.6875" y2="20.6875"></line><foreignObject class="markmap-foreign" x="8" y="0" style="opacity: 1;" width="109" height="20"><div><div xmlns="http://www.w3.org/1999/xhtml">会员 / 付费体系</div></div></foreignObject></g><g data-depth="3" data-path="1.36.39" class="markmap-node" transform="translate(482, 384.9375)"><line stroke="#bcbd22" stroke-width="1.375" x1="-1" x2="210" y1="20.6875" y2="20.6875"></line><foreignObject class="markmap-foreign" x="8" y="0" style="opacity: 1;" width="192" height="20"><div><div xmlns="http://www.w3.org/1999/xhtml">艾宾浩斯遗忘曲线复习算法</div></div></foreignObject></g><g data-depth="3" data-path="1.36.40" class="markmap-node" transform="translate(482, 411.3125)"><line stroke="#17becf" stroke-width="1.375" x1="-1" x2="210" y1="20.6875" y2="20.6875"></line><foreignObject class="markmap-foreign" x="8" y="0" style="opacity: 1;" width="192" height="20"><div><div xmlns="http://www.w3.org/1999/xhtml">生词本云端同步完善与导出</div></div></foreignObject></g><g data-depth="2" data-path="1.36" class="markmap-node" transform="translate(282, 371.75)"><line stroke="#8c564b" stroke-width="1.75" x1="-1" x2="122" y1="20.875" y2="20.875"></line><circle stroke-width="1.5" r="6" stroke="#8c564b" fill="var(--markmap-circle-open-bg)" cx="120" cy="20.875"></circle><foreignObject class="markmap-foreign" x="8" y="0" style="opacity: 1;" width="104" height="20"><div><div xmlns="http://www.w3.org/1999/xhtml">📌 待迭代计划</div></div></foreignObject></g><g data-depth="1" data-path="1" class="markmap-node" transform="translate(0, -10)"><line stroke="#1f77b4" stroke-width="2.5" x1="-1" x2="204" y1="21.25" y2="21.25"></line><circle stroke-width="1.5" r="6" stroke="#1f77b4" fill="var(--markmap-circle-open-bg)" cx="202" cy="21.25"></circle><foreignObject class="markmap-foreign" x="8" y="0" style="opacity: 1;" width="186" height="20"><div><div xmlns="http://www.w3.org/1999/xhtml">KoreanFlow 韩语学习工具</div></div></foreignObject></g></g></svg>